<?xml version="1.0"?>
<svg version="1.1" xmlns="http://www.w3.org/2000/svg" width="135" height="40" style=""><path fill="#fc0505" d="M15.833984375,14.982421875q0-0.95703125,0.328125-1.28515625t0.916015625-0.328125q0.1640625,0,0.3486328125,0.02734375t0.3486328125,0.08203125q0.916015625-0.177734375,1.736328125-0.177734375q1.326171875,0,2.40625,0.46484375q1.736328125,0.73828125,2.87109375,2.1875t1.66796875,3.404296875t0.533203125,4.005859375q0,1.1484375-0.1572265625,2.392578125t-0.6083984375,2.310546875q-0.396484375,0.95703125-1.09375,2.0029296875t-1.5791015625,1.982421875t-1.900390625,1.640625t-2.0576171875,0.9501953125l0,0.109375q0,0.2734375-0.1435546875,0.4443359375t-0.3486328125,0.259765625t-0.4716796875,0.1162109375t-0.4990234375,0.02734375q-0.13671875,0-0.3896484375-0.02734375t-0.4921875-0.1025390625t-0.4033203125-0.1982421875t-0.1640625-0.341796875q0-2.48828125-0.1298828125-4.9833984375t-0.2939453125-4.990234375t-0.2939453125-4.9833984375t-0.1298828125-4.990234375z M18.41796875,14.28515625q0.13671875,1.3125,0.177734375,2.6181640625t0.123046875,2.6181640625q0.21875,3.390625,0.505859375,6.7470703125t0.341796875,6.7470703125q1.3125-0.861328125,2.2490234375-1.96875t1.5380859375-2.40625t0.8818359375-2.7275390625t0.2802734375-2.9462890625q0-1.09375-0.19140625-2.40625t-0.65625-2.529296875t-1.2509765625-2.201171875t-1.9619140625-1.408203125q-0.24609375-0.08203125-0.5947265625-0.13671875t-1.1142578125-0.0546875q-0.08203125,0-0.1640625,0.02734375t-0.1640625,0.02734375z M29.77478515625,28.572265625q0-1.2578125,0.2939453125-2.4677734375t0.4990234375-2.4130859375q0.0546875-0.314453125,0.4306640625-0.3896484375t0.6357421875-0.0751953125q0.451171875,0,0.724609375,0.13671875q0.109375,0.0546875,0.205078125,0.123046875t0.095703125,0.177734375q0,1.17578125-0.2802734375,2.296875t-0.2802734375,2.37890625q0,0.423828125,0.0615234375,0.7998046875t0.1162109375,0.7451171875l0.08203125,0.396484375q0,0.109375,0.013671875,0.19140625t0.041015625,0.19140625q0,0.24609375-0.3486328125,0.3349609375t-0.6083984375,0.0888671875q-0.396484375,0-0.7314453125-0.1572265625t-0.5263671875-0.5400390625l-0.19140625-0.396484375q-0.1640625-0.314453125-0.1640625-0.7041015625t-0.068359375-0.7177734375z M30.64978515625,20.341796875l0-0.259765625q0-0.642578125,0.3212890625-1.1484375t0.9638671875-0.505859375q0.08203125,0,0.1572265625,0.013671875t0.1572265625,0.013671875q0.1640625,0.02734375,0.4306640625,0.1298828125t0.2666015625,0.3212890625l0,0.02734375q-0.0546875,0.109375-0.068359375,0.2255859375t-0.068359375,0.1982421875l0.02734375-0.02734375q-0.1640625,0.423828125-0.2666015625,0.68359375t-0.2255859375,0.4169921875t-0.3076171875,0.2255859375t-0.5263671875,0.068359375q-0.0546875,0-0.19140625-0.013671875t-0.2939453125-0.0546875t-0.2666015625-0.109375t-0.109375-0.205078125z M35.7448828125,33.75390625q0-0.396484375,0.0341796875-0.833984375t0.0615234375-0.8203125l0.08203125-2.05078125q0.13671875-2.4609375,0.3349609375-4.83984375t0.3349609375-4.8125q0.08203125-1.33984375,0.123046875-2.6318359375t0.123046875-2.6318359375q-0.0546875-0.109375-0.0546875-0.150390625q0-0.19140625,0.1435546875-0.30078125t0.3349609375-0.1845703125t0.4033203125-0.1025390625t0.3212890625-0.02734375l0.314453125,0q0.423828125,0.0546875,0.615234375,0.2666015625t0.24609375,0.505859375t0.02734375,0.62890625t-0.02734375,0.6220703125q0,1.982421875-0.095703125,4.0400390625t-0.21875,4.12890625t-0.2255859375,4.142578125t-0.1025390625,4.0947265625l0,0.95703125q0,0.642578125-0.3623046875,0.84765625t-1.0048828125,0.205078125q-0.560546875,0-0.984375-0.24609375t-0.423828125-0.806640625z M42.01576171875,28.900390625q0-0.9296875,0.2529296875-1.791015625t0.7587890625-1.5380859375t1.2646484375-1.080078125t1.7568359375-0.4033203125q0.615234375,0,1.3603515625,0.1845703125t1.4013671875,0.546875t1.09375,0.9228515625t0.4375,1.28515625q0,0.341796875-0.1162109375,0.51953125t-0.4716796875,0.177734375l-0.150390625-0.02734375q0.396484375,1.06640625,0.68359375,2.1875t0.560546875,2.2421875q0.109375,0.21875,0.1640625,0.3896484375t0.0546875,0.3349609375q0,0.21875-0.123046875,0.3623046875t-0.3212890625,0.2119140625t-0.41015625,0.095703125t-0.3759765625,0.02734375q-0.587890625,0-0.8818359375-0.205078125t-0.423828125-0.560546875t-0.1572265625-0.7998046875t-0.109375-0.8955078125q-0.1640625,0.533203125-0.4306640625,1.0390625t-0.62890625,0.9091796875t-0.8544921875,0.642578125t-1.107421875,0.2392578125q-0.90234375,0-1.517578125-0.51953125t-0.9912109375-1.2783203125t-0.546875-1.6201171875t-0.1708984375-1.599609375z M43.69740234375,18.87890625q0.109375-0.669921875,0.423828125-1.162109375t1.23046875-0.4921875q0.369140625,0,0.6357421875,0.1845703125t0.478515625,0.396484375t0.4169921875,0.3896484375t0.46484375,0.177734375q0.2734375,0,0.369140625-0.2255859375t0.1845703125-0.4716796875t0.2119140625-0.4716796875t0.4921875-0.2255859375q0.314453125,0,0.533203125,0.109375t0.21875,0.505859375q0,0.833984375-0.68359375,1.203125t-1.44921875,0.369140625q-0.1640625,0-0.341796875-0.0341796875t-0.328125-0.0888671875q-0.13671875-0.02734375-0.30078125-0.1640625t-0.3349609375-0.2666015625t-0.314453125-0.2255859375t-0.1982421875-0.095703125q-0.24609375,0.02734375-0.341796875,0.1845703125t-0.1435546875,0.3212890625t-0.1298828125,0.2939453125t-0.328125,0.1298828125q-0.19140625,0-0.478515625-0.0615234375t-0.287109375-0.2802734375z M43.95716796875,28.708984375q0,0.505859375,0.068359375,1.06640625t0.2255859375,1.107421875t0.4033203125,1.0322265625t0.615234375,0.8544921875q0.669921875-0.724609375,0.9912109375-1.763671875t0.57421875-2.0029296875t0.57421875-1.654296875t0.9912109375-0.6904296875q0.423828125,0,0.7109375,0.150390625q-0.13671875-0.341796875-0.451171875-0.6630859375t-0.7041015625-0.587890625t-0.806640625-0.4375t-0.7861328125-0.1708984375q-0.109375,0-0.2529296875,0.0341796875t-0.2255859375,0.0068359375q-0.560546875,0.1640625-0.9228515625,0.5673828125t-0.587890625,0.9501953125t-0.3212890625,1.12109375t-0.095703125,1.080078125z M59.21962890625,31.78515625q-0.013671875-0.41015625-0.013671875-0.8203125q0-1.28515625,0.13671875-2.583984375q0.1640625-1.72265625,0.21875-3.390625q0.0546875-1.955078125,0.1640625-4.060546875q0.068359375-1.1484375,0.068359375-2.26953125q0-0.916015625-0.041015625-1.818359375q0.13671875-0.314453125,0.3623046875-0.423828125t0.5673828125-0.109375q0.1640625,0,0.3486328125,0.02734375t0.3212890625,0.13671875q0.19140625,0.02734375,0.4716796875,0.0546875t0.4306640625,0.1640625q0.0546875,0.08203125,0.2802734375,0.560546875t0.533203125,1.162109375t0.642578125,1.4833984375t0.642578125,1.517578125t0.533203125,1.2646484375t0.2802734375,0.68359375q1.28515625-2.32421875,2.515625-4.7783203125t2.693359375-4.6279296875q0.13671875-0.19140625,0.4716796875-0.2802734375t0.5537109375-0.0888671875q0.587890625,0,0.8544921875,0.2802734375t0.3486328125,0.7177734375q0.0546875,0.2734375,0.068359375,0.587890625q0.013671875,0.1640625-0.013671875,0.341796875q-0.0546875,0.505859375-0.0546875,0.95703125q0,3.185546875-0.21875,6.3232421875t-0.396484375,6.3369140625q-0.02734375,0.65625-0.02734375,1.3671875t0.02734375,1.4765625q0.013671875,0.2734375,0.013671875,0.533203125q0,1.203125-0.205078125,2.2421875q-0.19140625,0.314453125-0.62890625,0.396484375t-0.73828125,0.08203125q-0.642578125,0-1.23046875-0.30078125l-0.150390625-0.177734375l-0.0546875-0.21875t-0.02734375-0.21875q0-1.982421875,0.1435546875-3.9921875t0.3212890625-4.0126953125t0.3759765625-3.9990234375t0.3349609375-3.9921875q-0.806640625,1.33984375-1.5654296875,2.7275390625t-1.4287109375,2.8232421875q-0.24609375,0.560546875-0.4716796875,1.203125t-0.5400390625,1.1484375q-0.1640625,0.24609375-0.5537109375,0.30078125t-0.6767578125,0.0546875q-0.2734375,0-0.5673828125-0.095703125t-0.4033203125-0.41015625q-0.505859375-1.544921875-1.080078125-3.021484375t-1.162109375-2.994140625q0,1.01171875,0.041015625,2.6181640625t0.041015625,3.3291015625t-0.0546875,3.294921875t-0.259765625,2.48828125q-0.0546875,0.341796875-0.4443359375,0.423828125t-0.6767578125,0.08203125q-0.21875,0-0.4169921875-0.02734375t-0.3896484375-0.109375z M75.4573046875,28.900390625q0-0.9296875,0.2529296875-1.791015625t0.7587890625-1.5380859375t1.2646484375-1.080078125t1.7568359375-0.4033203125q0.615234375,0,1.3603515625,0.1845703125t1.4013671875,0.546875t1.09375,0.9228515625t0.4375,1.28515625q0,0.341796875-0.1162109375,0.51953125t-0.4716796875,0.177734375l-0.150390625-0.02734375q0.396484375,1.06640625,0.68359375,2.1875t0.560546875,2.2421875q0.109375,0.21875,0.1640625,0.3896484375t0.0546875,0.3349609375q0,0.21875-0.123046875,0.3623046875t-0.3212890625,0.2119140625t-0.41015625,0.095703125t-0.3759765625,0.02734375q-0.587890625,0-0.8818359375-0.205078125t-0.423828125-0.560546875t-0.1572265625-0.7998046875t-0.109375-0.8955078125q-0.1640625,0.533203125-0.4306640625,1.0390625t-0.62890625,0.9091796875t-0.8544921875,0.642578125t-1.107421875,0.2392578125q-0.90234375,0-1.517578125-0.51953125t-0.9912109375-1.2783203125t-0.546875-1.6201171875t-0.1708984375-1.599609375z M77.3987109375,28.708984375q0,0.505859375,0.068359375,1.06640625t0.2255859375,1.107421875t0.4033203125,1.0322265625t0.615234375,0.8544921875q0.669921875-0.724609375,0.9912109375-1.763671875t0.57421875-2.0029296875t0.57421875-1.654296875t0.9912109375-0.6904296875q0.423828125,0,0.7109375,0.150390625q-0.13671875-0.341796875-0.451171875-0.6630859375t-0.7041015625-0.587890625t-0.806640625-0.4375t-0.7861328125-0.1708984375q-0.109375,0-0.2529296875,0.0341796875t-0.2255859375,0.0068359375q-0.560546875,0.1640625-0.9228515625,0.5673828125t-0.587890625,0.9501953125t-0.3212890625,1.12109375t-0.095703125,1.080078125z M87.30630859375,25.072265625q0-0.560546875,0.1982421875-0.943359375t0.8408203125-0.3828125q0.24609375,0,0.615234375,0.0751953125t0.423828125,0.3759765625q0.13671875,0.806640625,0.150390625,1.75t0.095703125,1.77734375q0.314453125-0.615234375,0.806640625-1.326171875t1.12109375-1.3125t1.3671875-0.998046875t1.50390625-0.396484375q0.0546875,0,0.205078125,0.041015625t0.2802734375,0.1162109375t0.1572265625,0.1708984375t-0.150390625,0.177734375q-0.0546875,0.1640625-0.232421875,0.1982421875t-0.314453125,0.0341796875q-0.08203125,0-0.259765625-0.068359375q-1.01171875,0.533203125-1.72265625,1.44921875t-1.162109375,2.0302734375t-0.65625,2.3515625t-0.205078125,2.4130859375q0,0.587890625-0.2666015625,0.7109375t-0.8544921875,0.123046875q-0.314453125,0-0.6630859375-0.068359375t-0.4853515625-0.4375q-0.24609375-0.779296875-0.4033203125-1.791015625t-0.2392578125-2.0849609375t-0.1162109375-2.1123046875t-0.0341796875-1.873046875z M97.0225,28.900390625q0-0.9296875,0.2529296875-1.791015625t0.7587890625-1.5380859375t1.2646484375-1.080078125t1.7568359375-0.4033203125q0.615234375,0,1.3603515625,0.1845703125t1.4013671875,0.546875t1.09375,0.9228515625t0.4375,1.28515625q0,0.341796875-0.1162109375,0.51953125t-0.4716796875,0.177734375l-0.150390625-0.02734375q0.396484375,1.06640625,0.68359375,2.1875t0.560546875,2.2421875q0.109375,0.21875,0.1640625,0.3896484375t0.0546875,0.3349609375q0,0.21875-0.123046875,0.3623046875t-0.3212890625,0.2119140625t-0.41015625,0.095703125t-0.3759765625,0.02734375q-0.587890625,0-0.8818359375-0.205078125t-0.423828125-0.560546875t-0.1572265625-0.7998046875t-0.109375-0.8955078125q-0.1640625,0.533203125-0.4306640625,1.0390625t-0.62890625,0.9091796875t-0.8544921875,0.642578125t-1.107421875,0.2392578125q-0.90234375,0-1.517578125-0.51953125t-0.9912109375-1.2783203125t-0.546875-1.6201171875t-0.1708984375-1.599609375z M98.96390625,28.708984375q0,0.505859375,0.068359375,1.06640625t0.2255859375,1.107421875t0.4033203125,1.0322265625t0.615234375,0.8544921875q0.669921875-0.724609375,0.9912109375-1.763671875t0.57421875-2.0029296875t0.57421875-1.654296875t0.9912109375-0.6904296875q0.423828125,0,0.7109375,0.150390625q-0.13671875-0.341796875-0.451171875-0.6630859375t-0.7041015625-0.587890625t-0.806640625-0.4375t-0.7861328125-0.1708984375q-0.109375,0-0.2529296875,0.0341796875t-0.2255859375,0.0068359375q-0.560546875,0.1640625-0.9228515625,0.5673828125t-0.587890625,0.9501953125t-0.3212890625,1.12109375t-0.095703125,1.080078125z M108.87150390625,33.75390625q0-0.396484375,0.0341796875-0.833984375t0.0615234375-0.8203125l0.08203125-2.05078125q0.13671875-2.4609375,0.3349609375-4.83984375t0.3349609375-4.8125q0.08203125-1.33984375,0.123046875-2.6318359375t0.123046875-2.6318359375q-0.0546875-0.109375-0.0546875-0.150390625q0-0.19140625,0.1435546875-0.30078125t0.3349609375-0.1845703125t0.4033203125-0.1025390625t0.3212890625-0.02734375l0.314453125,0q0.423828125,0.0546875,0.615234375,0.2666015625t0.24609375,0.505859375t0.02734375,0.62890625t-0.02734375,0.6220703125q0,1.982421875-0.095703125,4.0400390625t-0.21875,4.12890625t-0.2255859375,4.142578125t-0.1025390625,4.0947265625l0,0.95703125q0,0.642578125-0.3623046875,0.84765625t-1.0048828125,0.205078125q-0.560546875,0-0.984375-0.24609375t-0.423828125-0.806640625z"/><path fill="#" d=""/></svg>
